<?xml version="1.0" encoding="UTF-8"?>
<svg xmlns="http://www.w3.org/2000/svg" width="256" height="256" viewBox="-4 -4 264 264">
  <defs>
    <linearGradient id="icon-grad" x1="0" y1="127.6" x2="255.2" y2="127.6" gradientUnits="userSpaceOnUse">
      <stop offset="0" stop-color="#3E8EFF"></stop>
      <stop offset="0.5" stop-color="#90F0C5"></stop>
      <stop offset="1" stop-color="#FFC794"></stop>
    </linearGradient>
  </defs>
  <path d="M98.1,31.9c5.7-4.3,11.6-8.5,17.6-12.3C97.9,9.9,80.7,3.6,65.4,1.2c-21.4-3.4-39.6.4-51.7,12.5C-2.9,30.3-3.9,58.3,7.8,90.2c12.7,34.6,37.4,67.8,63.4,93.7,9.2,9.2,18.7,17.7,28.3,25.2,6-3.2,11.9-6.7,17.7-10.5-10.9-8.2-21.9-17.7-32.4-28.3-24-24-47.3-54.8-59-86.8-9.1-24.8-9.3-45.6,1.5-56.4,7.5-7.5,19.9-9.7,35.2-7.2,10.9,1.7,23,5.8,35.7,11.9M194.8,143.1c-7.3,9.2-15.4,18.4-24.4,27.3-24,24-54.8,47.3-86.8,59-24.8,9.1-45.6,9.3-56.4-1.5-10.8-10.8-10.6-31.6-1.5-56.4,1.7-4.7,3.8-9.6,6.1-14.5-4.3-5.7-8.5-11.6-12.4-17.7-4.7,8.7-8.6,17.3-11.7,25.6-11.7,31.9-10.7,59.9,5.9,76.5,16.6,16.6,44.6,17.6,76.5,5.9,34.6-12.7,67.8-37.4,93.7-63.4,9.4-9.4,18-19.1,25.7-28.9-4.2-4.8-9.2-9-14.9-11.9ZM127.6,104.4c6.3,0,12.1,2.5,16.3,6.7,54.5-16.2,101.5,16.2,111.6,70.5,4.3,23.1-.1,46.1-14,59.9-16.6,16.6-44.6,17.6-76.5,5.9-8.3-3-16.9-6.9-25.6-11.7,6-3.9,11.9-8.1,17.7-12.4,4.9,2.4,9.8,4.4,14.5,6.1,24.8,9.1,45.6,9.3,56.4-1.5,9.2-9.2,11.9-25.8,8.7-43-7.8-42.4-42.8-68-85.9-56-.7,12.2-10.8,21.9-23.2,21.9s-23.2-10.4-23.2-23.2,10.4-23.2,23.2-23.2ZM71.2,71.2c-9.2,9.2-17.7,18.7-25.2,28.3,3.2,6,6.7,11.9,10.5,17.7,8.2-10.9,17.7-21.9,28.3-32.4,28.6-28.6,59.7-49.1,86.8-59,24.8-9.1,45.6-9.3,56.4,1.5,10.8,10.8,10.6,31.6,1.5,56.4-2.8,7.6-6.4,15.4-10.7,23.5,5.6,3.3,10.7,7.1,15.5,11.4,5.4-9.7,9.8-19.2,13.2-28.4,11.7-31.9,10.7-59.9-5.9-76.5-16.6-16.6-44.6-17.6-76.5-5.9-34.6,12.7-67.7,37.4-93.7,63.4Z" fill="url(#icon-grad)"></path>
</svg>