<svg xmlns="http://www.w3.org/2000/svg" viewBox="0 0 500 500">
  <defs>
    <linearGradient id="caselinkMark" x1="0" y1="0" x2="500" y2="500" gradientUnits="userSpaceOnUse">
      <stop offset="0%" stop-color="#3E8EFF" />
      <stop offset="50%" stop-color="#90F0C5" />
      <stop offset="100%" stop-color="#FFC794" />
    </linearGradient>
  </defs>
  <path
    d="M191,62c11.1-8.4,22.6-16.4,34.3-24C190.6,19.3,157.1,7.1,127.2,2.3c-41.6-6.6-77,.8-100.6,24.4C-5.6,58.9-7.6,113.4,15.2,175.5c24.7,67.3,72.8,131.8,123.4,182.4,17.9,17.9,36.4,34.4,55,49.1,11.7-6.1,23.2-13,34.4-20.4-21.3-16-42.5-34.5-63.1-55-46.6-46.6-92-106.6-114.8-168.9-17.7-48.3-18.2-88.7,2.9-109.7,14.6-14.6,38.8-18.8,68.5-14.1,21.2,3.4,44.8,11.2,69.5,23.1M379,278.4c-14.2,18-30,35.8-47.4,53.2-46.6,46.6-106.6,91.9-168.9,114.8-48.3,17.7-88.7,18.2-109.7-2.9-21.1-21.1-20.6-61.5-2.9-109.7,3.4-9.2,7.4-18.6,12-28.2-8.4-11.2-16.5-22.7-24.1-34.4-9.2,17-16.8,33.7-22.7,49.8-22.8,62.1-20.8,116.6,11.5,148.8,32.2,32.2,86.7,34.3,148.8,11.5,67.3-24.7,131.8-72.8,182.4-123.4,18.3-18.3,35.1-37.2,50.1-56.3-8.2-9.4-17.9-17.4-29-23.2ZM248.2,203.1c12.3,0,23.5,4.9,31.6,12.9,106-31.5,197.5,31.5,217.1,137.1,8.3,44.9-.2,89.7-27.2,116.6-32.2,32.2-86.7,34.3-148.8,11.5-16.1-5.9-32.8-13.5-49.8-22.7,11.7-7.6,23.2-15.7,34.4-24.1,9.6,4.6,19,8.6,28.2,12,48.3,17.7,88.7,18.1,109.7-2.9,18-18,23.2-50.2,17-83.7-15.2-82.4-83.2-132.4-167.2-109-1.3,23.8-21,42.6-45.1,42.6s-45.2-20.2-45.2-45.2,20.2-45.2,45.2-45.2ZM138.6,138.6c-17.9,17.9-34.4,36.4-49.1,55,6.1,11.7,13,23.1,20.4,34.4,16-21.3,34.4-42.5,55-63.1,55.6-55.6,116.1-95.5,168.9-114.8,48.3-17.7,88.7-18.2,109.7,2.9,21.1,21.1,20.6,61.5,2.9,109.7-5.4,14.7-12.4,30-20.9,45.7,10.8,6.4,20.9,13.9,30.1,22.3,10.5-18.9,19.1-37.4,25.6-55.2,22.8-62.1,20.8-116.6-11.5-148.8-32.2-32.2-86.7-34.3-148.8-11.5-67.3,24.7-131.8,72.8-182.4,123.4Z"
    fill="url(#caselinkMark)"
  />
</svg>
